<?xml version="1.0" encoding="UTF-8"?>
<!-- Generated by Pixelmator Pro 3.8 -->
<svg width="1024" height="155" viewBox="0 0 1024 155" xmlns="http://www.w3.org/2000/svg">
    <path id="Path" fill="#0741ad" stroke="none" d="M 154.98378 77.5 C 154.98378 120.302071 120.289482 155 77.49189 155 C 34.694302 155 -0 120.302071 -0 77.5 C -0 34.697929 34.694302 0 77.49189 0 C 120.289482 0 154.98378 34.697929 154.98378 77.5 Z"/>
    <path id="path1" fill="#ffffff" fill-rule="evenodd" stroke="none" d="M 75.914383 39.054466 L 80.065727 39.718742 L 82.252106 41.54554 L 83.248436 43.372314 L 116.099464 107.78035 L 116.459251 110.631256 L 115.103134 113.122314 L 112.778381 114.616959 L 110.785728 115.115173 L 108.433296 115.115173 L 105.610374 113.952675 L 103.756111 111.959824 L 95.425728 95.601791 L 58.229626 95.601791 L 48.543137 113.620529 L 46.550488 114.783035 L 43.035675 115.115173 L 40.212757 114.118744 L 37.694271 111.627686 L 37.196106 109.939285 L 37.694271 106.949997 L 71.23719 41.379463 L 73.727997 39.386604 L 75.748329 39.220528 Z M 76.744644 58.733932 L 89.75222 84.41964 L 63.903137 84.41964 L 76.578598 58.899994 Z"/>
    <g id="Group">
        <path id="path2" fill="#15222f" stroke="none" d="M 222.534561 135.237503 L 196.497299 135.237503 L 235.553207 19.762497 L 267.479889 19.762497 L 306.535797 135.237503 L 280.343506 135.237503 L 272.59433 111.677498 L 230.283768 111.677498 L 222.534561 135.237503 Z M 251.516541 46.267502 L 236.948059 90.752502 L 265.930023 90.752502 L 251.516541 46.267502 Z M 346.056641 137.097504 L 346.056641 137.097504 C 336.757609 137.097504 328.672628 134.901672 321.801697 130.51001 C 314.930745 126.118337 310.255402 120.202499 307.775665 112.762497 L 307.775665 112.762497 L 324.823883 104.702499 C 326.993642 109.249166 329.938324 112.814166 333.657928 115.397499 C 337.377553 117.980832 341.510457 119.272499 346.056641 119.272499 L 346.056641 119.272499 C 352.875956 119.272499 356.285614 116.740832 356.285614 111.677498 L 356.285614 111.677498 C 356.285614 108.267499 353.49589 105.787501 347.916443 104.237503 L 347.916443 104.237503 L 333.50296 100.207504 C 326.580353 98.244166 321.259247 95.066666 317.539642 90.675003 C 313.820017 86.283335 311.960205 81.090836 311.960205 75.097504 L 311.960205 75.097504 C 311.960205 69.827504 313.303406 65.229169 315.989807 61.302498 C 318.676188 57.375832 322.447459 54.301664 327.303619 52.079994 C 332.15978 49.85833 337.739197 48.747498 344.04187 48.747498 L 344.04187 48.747498 C 352.307678 48.747498 359.566091 50.684998 365.817108 54.559998 C 372.068085 58.434998 376.485118 63.885834 379.068207 70.912506 L 379.068207 70.912506 L 361.86499 78.972504 C 360.625122 75.459167 358.377848 72.643333 355.123169 70.525002 C 351.86853 68.40667 348.174764 67.347504 344.04187 67.347504 L 344.04187 67.347504 C 341.045512 67.347504 338.694926 67.967501 336.990112 69.207497 C 335.285278 70.447502 334.432861 72.152504 334.432861 74.322502 L 334.432861 74.322502 C 334.432861 77.629168 337.480876 80.160835 343.576904 81.917503 L 343.576904 81.917503 L 357.060516 85.947502 C 364.086436 88.014168 369.459198 91.139999 373.178802 95.324997 C 376.898427 99.51 378.75824 104.650833 378.75824 110.747498 L 378.75824 110.747498 C 378.75824 118.60083 375.761882 124.955831 369.769165 129.8125 C 363.776469 134.669169 355.872294 137.097504 346.056641 137.097504 Z M 430.367828 137.097504 L 430.367828 137.097504 C 421.895376 137.097504 414.27534 135.160004 407.507721 131.285004 C 400.740102 127.410004 395.36733 122.114169 391.389404 115.397499 C 387.411479 108.680829 385.422516 101.137497 385.422516 92.767502 L 385.422516 92.767502 C 385.422516 84.397502 387.385651 76.88 391.31192 70.214996 C 395.238169 63.549998 400.610942 58.305832 407.430237 54.482498 C 414.249512 50.659164 421.895376 48.747498 430.367828 48.747498 L 430.367828 48.747498 C 436.670502 48.747498 442.508219 49.832497 447.880981 52.002495 C 453.253764 54.172498 457.851613 57.195 461.67453 61.07 C 465.497487 64.945005 468.235535 69.517504 469.888672 74.787498 L 469.888672 74.787498 L 449.740784 83.467499 C 448.294291 79.230835 445.840383 75.872503 442.379059 73.392502 C 438.917775 70.912501 434.914032 69.672501 430.367828 69.672501 L 430.367828 69.672501 C 424.2718 69.672501 419.260661 71.842501 415.334412 76.182503 C 411.408142 80.522504 409.445007 86.102503 409.445007 92.922501 L 409.445007 92.922501 C 409.445007 99.742498 411.408142 105.3225 415.334412 109.662506 C 419.260661 114.002502 424.2718 116.172501 430.367828 116.172501 L 430.367828 116.172501 C 435.017344 116.172501 439.046916 114.9325 442.456543 112.452499 C 445.866211 109.972499 448.294291 106.614166 449.740784 102.377502 L 449.740784 102.377502 L 469.888672 111.212494 C 468.338847 116.172496 465.652466 120.615832 461.829529 124.542503 C 458.006612 128.469165 453.408763 131.54333 448.03598 133.764999 C 442.663198 135.986669 436.773814 137.097504 430.367828 137.097504 Z M 520.413391 137.097504 L 520.413391 137.097504 C 511.424337 137.097504 503.623494 135.108337 497.010864 131.130005 C 490.398214 127.151667 485.283742 121.804166 481.66745 115.087502 C 478.051178 108.370832 476.243042 100.930832 476.243042 92.767502 L 476.243042 92.767502 C 476.243042 84.294169 478.128662 76.750834 481.899902 70.137497 C 485.671204 63.524165 490.759847 58.305832 497.165833 54.482498 C 503.571838 50.659164 510.804403 48.747498 518.863525 48.747498 L 518.863525 48.747498 C 527.85262 48.747498 535.446838 50.607496 541.646179 54.327492 C 547.845561 58.047498 552.572571 63.033335 555.827209 69.285004 C 559.081889 75.536667 560.709229 82.589167 560.709229 90.442505 L 560.709229 90.442505 C 560.709229 92.095835 560.631734 93.723333 560.476746 95.324997 C 560.321757 96.926666 560.037618 98.295832 559.624329 99.432495 L 559.624329 99.432495 L 500.420471 99.432495 C 501.040405 104.702499 503.158529 108.939168 506.774841 112.142502 C 510.391134 115.34583 515.040629 116.947495 520.723328 116.947495 L 520.723328 116.947495 C 524.856262 116.947495 528.39506 116.120829 531.339722 114.467499 C 534.284424 112.814168 536.583354 110.540835 538.236511 107.647499 L 538.236511 107.647499 L 556.834595 116.482498 C 554.251546 122.6825 549.705363 127.668335 543.196045 131.440002 C 536.686727 135.21167 529.092509 137.097504 520.413391 137.097504 Z M 518.863525 67.347504 L 518.863525 67.347504 C 514.317383 67.347504 510.468628 68.63917 507.317261 71.222504 C 504.165955 73.805837 502.022013 77.525836 500.885437 82.3825 L 500.885437 82.3825 L 536.066772 82.3825 C 535.550171 77.939166 533.742025 74.3225 530.642334 71.532501 C 527.542643 68.742503 523.616374 67.347504 518.863525 67.347504 Z M 593.720764 135.237503 L 570.473206 135.237503 L 570.473206 50.607498 L 592.170898 50.607498 L 592.170898 60.9925 C 594.340658 56.859169 597.492004 53.785001 601.624939 51.769997 C 605.757833 49.754997 610.510661 48.747498 615.883423 48.747498 L 615.883423 48.747498 C 622.289388 48.747498 627.894633 50.090833 632.699158 52.777504 C 637.503642 55.464165 641.249084 59.209994 643.935486 64.014992 C 646.621887 68.82 647.965088 74.425837 647.965088 80.832504 L 647.965088 80.832504 L 647.965088 135.237503 L 624.717468 135.237503 L 624.717468 85.792503 C 624.717468 80.935834 623.270955 77.035001 620.37793 74.090004 C 617.484904 71.145002 613.765299 69.672501 609.219116 69.672501 L 609.219116 69.672501 C 604.672933 69.672501 600.953328 71.145002 598.060303 74.090004 C 595.167277 77.035001 593.720764 80.935834 593.720764 85.792503 L 593.720764 85.792503 L 593.720764 135.237503 Z M 699.264709 137.097504 L 699.264709 137.097504 C 690.998922 137.097504 683.611369 135.134171 677.102051 131.207504 C 670.592733 127.280833 665.452433 121.959165 661.681152 115.2425 C 657.909871 108.525831 656.024231 101.085831 656.024231 92.922501 L 656.024231 92.922501 C 656.024231 84.655833 657.935689 77.19 661.758606 70.525002 C 665.581563 63.859998 670.747701 58.564163 677.257019 54.637497 C 683.766337 50.710831 691.050578 48.747498 699.109741 48.747498 L 699.109741 48.747498 C 709.338664 48.747498 717.449463 51.744166 723.442139 57.737503 L 723.442139 57.737503 L 723.442139 17.902512 L 746.689697 17.902512 L 746.689697 135.237503 L 724.992004 135.237503 L 724.992004 127.177498 C 721.995626 130.380831 718.250183 132.834997 713.755676 134.539993 C 709.261169 136.245 704.430847 137.097504 699.264709 137.097504 Z M 702.054382 116.172501 L 702.054382 116.172501 C 708.357035 116.172501 713.497335 114.028336 717.475281 109.740005 C 721.453186 105.451665 723.442139 99.84583 723.442139 92.922501 L 723.442139 92.922501 C 723.442139 86.102503 721.453186 80.522504 717.475281 76.182503 C 713.497335 71.842501 708.357035 69.672501 702.054382 69.672501 L 702.054382 69.672501 C 695.648376 69.672501 690.378947 71.868334 686.246094 76.260002 C 682.113159 80.65167 680.046692 86.205836 680.046692 92.922501 L 680.046692 92.922501 C 680.046692 99.742498 682.113159 105.3225 686.246094 109.662506 C 690.378947 114.002502 695.648376 116.172501 702.054382 116.172501 Z M 783.110901 43.012505 L 759.863342 43.012505 L 759.863342 19.762497 L 783.110901 19.762497 L 783.110901 43.012505 Z M 783.110901 135.237503 L 759.863342 135.237503 L 759.863342 50.607498 L 783.110901 50.607498 L 783.110901 135.237503 Z M 822.476746 137.097504 L 822.476746 137.097504 C 813.384379 137.097504 806.177653 134.9275 800.856567 130.587494 C 795.535482 126.247498 792.874939 120.254166 792.874939 112.607498 L 792.874939 112.607498 C 792.874939 105.477498 795.354655 99.587499 800.314087 94.9375 C 805.27356 90.287501 812.816101 87.135836 822.941711 85.482506 L 822.941711 85.482506 L 846.344238 81.762505 L 846.344238 79.4375 C 846.344238 76.234166 845.078573 73.547501 842.547241 71.377502 C 840.015788 69.207504 836.580302 68.122505 832.240784 68.122505 L 832.240784 68.122505 C 828.107849 68.122505 824.465739 69.259171 821.314453 71.532501 C 818.163086 73.805832 815.864156 76.802498 814.417664 80.522499 L 814.417664 80.522499 L 795.81958 71.687508 C 798.299316 64.660835 802.922994 59.080833 809.690613 54.947502 C 816.458232 50.814166 824.336589 48.747498 833.325684 48.747498 L 833.325684 48.747498 C 840.454915 48.747498 846.757589 50.039167 852.233704 52.622505 C 857.709778 55.205833 861.971822 58.796664 865.019836 63.394997 C 868.067891 67.993334 869.591919 73.340836 869.591919 79.4375 L 869.591919 79.4375 L 869.591919 135.237503 L 847.894104 135.237503 L 847.894104 127.332497 C 841.488139 133.842501 833.015686 137.097504 822.476746 137.097504 Z M 816.8974 111.832497 L 816.8974 111.832497 C 816.8974 114.415835 817.878947 116.430837 819.842041 117.877502 C 821.805176 119.324168 824.233256 120.047501 827.126282 120.047501 L 827.126282 120.047501 C 832.912374 120.047501 837.56189 118.239166 841.074829 114.622498 C 844.587769 111.005829 846.344238 106.614164 846.344238 101.447502 L 846.344238 101.447502 L 846.344238 98.8125 L 827.126282 102.222496 C 823.819967 102.842496 821.288574 103.901665 819.532104 105.400002 C 817.775635 106.898333 816.8974 109.042498 816.8974 111.832497 Z M 923.526245 136.167496 L 923.526245 136.167496 C 913.297323 136.167496 905.36731 133.40333 899.736206 127.875 C 894.105143 122.34667 891.289612 114.622503 891.289612 104.702499 L 891.289612 104.702499 L 891.289612 70.7575 L 877.031067 70.7575 L 877.031067 50.607498 L 877.805969 50.607498 C 886.795064 50.607498 891.289612 46.267499 891.289612 37.587502 L 891.289612 37.587502 L 891.289612 31.387497 L 914.53717 31.387497 L 914.53717 50.607498 L 934.375061 50.607498 L 934.375061 70.7575 L 914.53717 70.7575 L 914.53717 103.152496 C 914.53717 111.729167 919.341675 116.017502 928.950684 116.017502 L 928.950684 116.017502 C 930.397176 116.017502 932.205302 115.862503 934.375061 115.552505 L 934.375061 115.552505 L 934.375061 135.237503 C 932.825256 135.444168 931.068787 135.650833 929.105652 135.857498 C 927.142517 136.064163 925.282715 136.167496 923.526245 136.167496 Z M 984.899841 137.097504 L 984.899841 137.097504 C 975.910746 137.097504 968.109904 135.108337 961.497314 131.130005 C 954.884644 127.151667 949.770162 121.804166 946.15387 115.087502 C 942.537618 108.370832 940.729492 100.930832 940.729492 92.767502 L 940.729492 92.767502 C 940.729492 84.294169 942.615092 76.750834 946.386292 70.137497 C 950.157572 63.524165 955.246236 58.305832 961.652283 54.482498 C 968.058248 50.659164 975.290812 48.747498 983.349976 48.747498 L 983.349976 48.747498 C 992.33903 48.747498 999.933248 50.607496 1006.132629 54.327492 C 1012.33193 58.047498 1017.058919 63.033335 1020.313599 69.285004 C 1023.568237 75.536667 1025.195557 82.589167 1025.195557 90.442505 L 1025.195557 90.442505 C 1025.195557 92.095835 1025.118083 93.723333 1024.963135 95.324997 C 1024.808187 96.926666 1024.524048 98.295832 1024.110718 99.432495 L 1024.110718 99.432495 L 964.906921 99.432495 C 965.526876 104.702499 967.644979 108.939168 971.26123 112.142502 C 974.877523 115.34583 979.527039 116.947495 985.209778 116.947495 L 985.209778 116.947495 C 989.342672 116.947495 992.88147 116.120829 995.826172 114.467499 C 998.770874 112.814168 1001.069804 110.540835 1002.722961 107.647499 L 1002.722961 107.647499 L 1021.321045 116.482498 C 1018.737915 122.6825 1014.191711 127.668335 1007.682434 131.440002 C 1001.173075 135.21167 993.578878 137.097504 984.899841 137.097504 Z M 983.349976 67.347504 L 983.349976 67.347504 C 978.803752 67.347504 974.954997 68.63917 971.803711 71.222504 C 968.652344 73.805837 966.508403 77.525836 965.371887 82.3825 L 965.371887 82.3825 L 1000.553223 82.3825 C 1000.036621 77.939166 998.228455 74.3225 995.128723 71.532501 C 992.029073 68.742503 988.102824 67.347504 983.349976 67.347504 Z"/>
    </g>
</svg>
